<svg width="24" height="24" viewBox="0 0 24 24" fill="none" xmlns="http://www.w3.org/2000/svg">
<path d="M3.42857 0C1.5375 0 0 1.5375 0 3.42857V20.5714C0 22.4625 1.5375 24 3.42857 24H20.5714C22.4625 24 24 22.4625 24 20.5714V3.42857C24 1.5375 22.4625 0 20.5714 0H3.42857ZM10.7143 16.7143V13.2857H7.28571C6.57321 13.2857 6 12.7125 6 12C6 11.2875 6.57321 10.7143 7.28571 10.7143H10.7143V7.28571C10.7143 6.57321 11.2875 6 12 6C12.7125 6 13.2857 6.57321 13.2857 7.28571V10.7143H16.7143C17.4268 10.7143 18 11.2875 18 12C18 12.7125 17.4268 13.2857 16.7143 13.2857H13.2857V16.7143C13.2857 17.4268 12.7125 18 12 18C11.2875 18 10.7143 17.4268 10.7143 16.7143Z" fill="#2AA82A"/>
</svg>
