<svg width="23" height="19" viewBox="0 0 23 19" fill="none" xmlns="http://www.w3.org/2000/svg">
<path d="M5.55676 15.2348C6.13611 14.8362 6.88611 14.7344 7.55977 14.9634C8.7499 15.3705 10.0837 15.6037 11.5029 15.6037C17.1033 15.6037 20.8443 12.1904 20.8443 8.81946C20.8443 5.44856 17.1033 2.03526 11.5029 2.03526C5.90257 2.03526 2.16153 5.44856 2.16153 8.81946C2.16153 10.1763 2.71842 11.4823 3.76483 12.6017C4.15106 13.0129 4.33969 13.5557 4.29478 14.1069C4.2319 14.8744 4.03879 15.5782 3.78729 16.2015C4.55077 15.8665 5.184 15.4934 5.55676 15.239V15.2348ZM0.957926 16.9563C1.03876 16.8418 1.11511 16.7273 1.18697 16.6128C1.63607 15.9089 2.06272 14.9846 2.14805 13.9458C0.800739 12.4999 0.00582288 10.7318 0.00582288 8.81946C0.00582288 3.94756 5.15257 0 11.5029 0C17.8533 0 23 3.94756 23 8.81946C23 13.6914 17.8533 17.6389 11.5029 17.6389C9.83673 17.6389 8.25588 17.3675 6.82773 16.8799C6.29329 17.2488 5.42203 17.7534 4.38909 18.1774C3.71094 18.4573 2.93848 18.7117 2.13907 18.8601C2.10314 18.8686 2.06721 18.8728 2.03129 18.8813C1.83368 18.9152 1.64057 18.9449 1.43847 18.9618C1.42949 18.9618 1.41601 18.9661 1.40703 18.9661C1.17799 18.9873 0.948943 19 0.7199 19C0.427982 19 0.167501 18.8346 0.0552244 18.5802C-0.0570518 18.3258 0.00582287 18.0375 0.20792 17.8424C0.392053 17.6644 0.558222 17.4736 0.715409 17.27C0.791757 17.1725 0.863614 17.075 0.930979 16.9775C0.93547 16.969 0.939961 16.9647 0.944452 16.9563H0.957926Z" fill="#818181"/>
</svg>
