<svg width="16" height="5" viewBox="0 0 16 5" fill="none" xmlns="http://www.w3.org/2000/svg">
<path d="M0 2.07407C0 1.524 0.218518 0.996447 0.607482 0.607482C0.996446 0.218518 1.524 0 2.07407 0C2.62415 0 3.1517 0.218518 3.54067 0.607482C3.92963 0.996447 4.14815 1.524 4.14815 2.07407C4.14815 2.62415 3.92963 3.1517 3.54067 3.54067C3.1517 3.92963 2.62415 4.14815 2.07407 4.14815C1.524 4.14815 0.996446 3.92963 0.607482 3.54067C0.218518 3.1517 0 2.62415 0 2.07407ZM5.92593 2.07407C5.92593 1.524 6.14444 0.996447 6.53341 0.607482C6.92237 0.218518 7.44992 0 8 0C8.55008 0 9.07763 0.218518 9.46659 0.607482C9.85556 0.996447 10.0741 1.524 10.0741 2.07407C10.0741 2.62415 9.85556 3.1517 9.46659 3.54067C9.07763 3.92963 8.55008 4.14815 8 4.14815C7.44992 4.14815 6.92237 3.92963 6.53341 3.54067C6.14444 3.1517 5.92593 2.62415 5.92593 2.07407ZM13.9259 0C14.476 0 15.0036 0.218518 15.3925 0.607482C15.7815 0.996447 16 1.524 16 2.07407C16 2.62415 15.7815 3.1517 15.3925 3.54067C15.0036 3.92963 14.476 4.14815 13.9259 4.14815C13.3758 4.14815 12.8483 3.92963 12.4593 3.54067C12.0704 3.1517 11.8519 2.62415 11.8519 2.07407C11.8519 1.524 12.0704 0.996447 12.4593 0.607482C12.8483 0.218518 13.3758 0 13.9259 0Z" fill="#A9A9A9"/>
</svg>
