<svg width="18" height="20" viewBox="0 0 18 20" fill="none" xmlns="http://www.w3.org/2000/svg">
<path d="M2.5 1.25C2.5 0.558594 1.94141 0 1.25 0C0.558594 0 0 0.558594 0 1.25V2.5V14.375V18.75C0 19.4414 0.558594 20 1.25 20C1.94141 20 2.5 19.4414 2.5 18.75V13.75L5.01172 13.1211C6.61719 12.7188 8.31641 12.9062 9.79688 13.6445C11.5234 14.5078 13.5273 14.6133 15.332 13.9336L16.6875 13.4258C17.1758 13.2422 17.5 12.7773 17.5 12.2539V2.58203C17.5 1.68359 16.5547 1.09766 15.75 1.5L15.375 1.6875C13.5664 2.59375 11.4375 2.59375 9.62891 1.6875C8.25781 1 6.68359 0.828125 5.19531 1.19922L2.5 1.875V1.25Z" fill="#2AA82A"/>
</svg>
