<svg width="120" height="120" viewBox="0 0 120 120" fill="none" xmlns="http://www.w3.org/2000/svg">
<g clip-path="url(#clip0_160_54)">
<path d="M60 120C93.1371 120 120 93.1371 120 60C120 26.8629 93.1371 0 60 0C26.8629 0 0 26.8629 0 60C0 93.1371 26.8629 120 60 120Z" fill="white"/>
<path d="M60.0001 114.547C90.1256 114.547 114.547 90.1255 114.547 60C114.547 29.8745 90.1256 5.45303 60.0001 5.45303C29.8746 5.45303 5.45312 29.8745 5.45312 60C5.45312 90.1255 29.8746 114.547 60.0001 114.547Z" fill="#31A039"/>
<path d="M102.483 57.2634H86.8622V18.3267C86.8622 14.3242 83.6186 11.0806 79.6161 11.0806C75.6136 11.0806 72.37 14.3242 72.37 18.3267V57.2634H44.608V41.7236C44.608 37.3686 48.3754 34.4843 49.9938 33.4434C51.9783 32.1708 59.0027 29.8103 60.1007 28.2019L60.1142 28.1818C63.7473 22.8463 59.1236 15.8117 52.7741 16.9769C50.0274 17.4805 47.1901 18.4711 44.4065 19.9451C35.4614 24.6762 30.1192 32.8188 30.1192 41.727V57.2668H17.5141C13.5117 57.2668 10.2681 60.5104 10.2681 64.5128C10.2681 68.5153 13.5117 71.7589 17.5141 71.7589H30.1192V90.549C30.1192 94.5514 33.3628 97.7951 37.3653 97.7951C41.3677 97.7951 44.6113 94.5514 44.6113 90.549V71.7589H72.3734V101.68C72.3734 105.682 75.617 108.926 79.6195 108.926C83.6219 108.926 86.8655 105.682 86.8655 101.68V71.7589H102.486C106.488 71.7589 109.732 68.5153 109.732 64.5128C109.732 60.5104 106.488 57.2668 102.486 57.2668L102.483 57.2634Z" fill="white"/>
</g>
<defs>
<clipPath id="clip0_160_54">
<rect width="120" height="120" fill="white"/>
</clipPath>
</defs>
</svg>
