<svg width="24" height="22" viewBox="0 0 24 22" fill="none" xmlns="http://www.w3.org/2000/svg">
<path d="M23.9937 10.6467C23.9937 11.3968 23.3687 11.9844 22.6603 11.9844H21.3268L21.356 18.6599C21.356 18.7724 21.3476 18.8849 21.3351 18.9974V19.6683C21.3351 20.5893 20.5893 21.3351 19.6683 21.3351H19.0016C18.9558 21.3351 18.9099 21.3351 18.8641 21.331C18.8058 21.3351 18.7474 21.3351 18.6891 21.3351H17.3348H16.3347C15.4138 21.3351 14.6679 20.5893 14.6679 19.6683V18.6683V16.0014C14.6679 15.2638 14.072 14.6679 13.3345 14.6679H10.6676C9.93001 14.6679 9.33413 15.2638 9.33413 16.0014V18.6683V19.6683C9.33413 20.5893 8.58823 21.3351 7.66732 21.3351H6.66723H5.33795C5.27545 21.3351 5.21294 21.331 5.15044 21.3268C5.10043 21.331 5.05043 21.3351 5.00043 21.3351H4.3337C3.41279 21.3351 2.66689 20.5893 2.66689 19.6683V15.0013C2.66689 14.9638 2.66689 14.9221 2.67106 14.8846V11.9844H1.33345C0.583383 11.9844 0 11.401 0 10.6467C0 10.2717 0.125011 9.93834 0.416702 9.64665L11.1009 0.333362C11.3926 0.0416702 11.726 0 12.0177 0C12.3094 0 12.6427 0.0833404 12.8928 0.291691L23.5353 9.64665C23.8687 9.93834 24.0354 10.2717 23.9937 10.6467Z" fill="#2AA82A"/>
</svg>
