<svg width="28" height="24" viewBox="0 0 28 24" fill="none" xmlns="http://www.w3.org/2000/svg">
<path d="M0 3.42857C0 1.5375 1.5375 0 3.42857 0H24C25.8911 0 27.4286 1.5375 27.4286 3.42857V20.5714C27.4286 22.4625 25.8911 24 24 24H3.42857C1.5375 24 0 22.4625 0 20.5714V3.42857ZM17.3464 9.13393C17.1054 8.78036 16.7089 8.57143 16.2857 8.57143C15.8625 8.57143 15.4607 8.78036 15.225 9.13393L10.5643 15.9696L9.14464 14.1964C8.89821 13.8911 8.52857 13.7143 8.14286 13.7143C7.75714 13.7143 7.38214 13.8911 7.14107 14.1964L3.7125 18.4821C3.40179 18.8679 3.34286 19.3982 3.55714 19.8429C3.77143 20.2875 4.22143 20.5714 4.71429 20.5714H9.85714H11.5714H22.7143C23.1911 20.5714 23.6304 20.3089 23.85 19.8857C24.0696 19.4625 24.0429 18.9536 23.775 18.5625L17.3464 9.13393ZM6 8.57143C6.68199 8.57143 7.33604 8.30051 7.81827 7.81827C8.30051 7.33604 8.57143 6.68199 8.57143 6C8.57143 5.31801 8.30051 4.66396 7.81827 4.18173C7.33604 3.69949 6.68199 3.42857 6 3.42857C5.31801 3.42857 4.66396 3.69949 4.18173 4.18173C3.69949 4.66396 3.42857 5.31801 3.42857 6C3.42857 6.68199 3.69949 7.33604 4.18173 7.81827C4.66396 8.30051 5.31801 8.57143 6 8.57143Z" fill="#2AA82A"/>
</svg>
