<svg width="20" height="18" viewBox="0 0 20 18" fill="none" xmlns="http://www.w3.org/2000/svg">
<path d="M14.7617 3.13672L19.5586 7.93359C19.8398 8.21484 20 8.60156 20 9C20 9.39844 19.8398 9.78516 19.5586 10.0664L14.7617 14.8633C14.5117 15.1133 14.1758 15.25 13.8242 15.25C13.0938 15.25 12.5 14.6562 12.5 13.9258V11.5H7.5C6.80859 11.5 6.25 10.9414 6.25 10.25V7.75C6.25 7.05859 6.80859 6.5 7.5 6.5H12.5V4.07422C12.5 3.34375 13.0938 2.75 13.8242 2.75C14.1758 2.75 14.5117 2.89062 14.7617 3.13672ZM6.25 2.75H3.75C3.05859 2.75 2.5 3.30859 2.5 4V14C2.5 14.6914 3.05859 15.25 3.75 15.25H6.25C6.94141 15.25 7.5 15.8086 7.5 16.5C7.5 17.1914 6.94141 17.75 6.25 17.75H3.75C1.67969 17.75 0 16.0703 0 14V4C0 1.92969 1.67969 0.25 3.75 0.25H6.25C6.94141 0.25 7.5 0.808594 7.5 1.5C7.5 2.19141 6.94141 2.75 6.25 2.75Z" fill="#2AA82A"/>
</svg>
