<svg width="147" height="50" viewBox="0 0 147 50" fill="none" xmlns="http://www.w3.org/2000/svg">
<path d="M67.7942 26.7352H60.0825V34.6367H55.3018V14.803H68.5714V18.4932H60.0855V23.057H67.7972V26.7352H67.7942Z" fill="#31A039"/>
<path d="M78.8287 33.0431C77.8556 34.2873 76.5452 34.9108 74.8914 34.9108C73.2376 34.9108 72.0507 34.4409 71.2193 33.501C70.3879 32.5612 69.9722 31.2116 69.9722 29.4493V19.9H74.5631V29.4764C74.5631 30.7386 75.1746 31.3713 76.4007 31.3713C77.455 31.3713 78.2021 30.9947 78.6479 30.2416V19.903H83.2659V34.6427H78.9612L78.8256 33.0492L78.8287 33.0431Z" fill="#31A039"/>
<path d="M89.9987 19.897L90.1493 21.6261C91.1675 20.2916 92.5683 19.6228 94.3576 19.6228C95.8909 19.6228 97.0387 20.0807 97.7978 20.9995C98.5569 21.9183 98.9485 23.298 98.9757 25.1416V34.6367H94.3697V25.3314C94.3697 24.5873 94.2191 24.039 93.9208 23.6896C93.6226 23.3402 93.0774 23.1654 92.2851 23.1654C91.3874 23.1654 90.7186 23.5209 90.2818 24.2288V34.6367H85.6909V19.897H89.9957H89.9987Z" fill="#31A039"/>
<path d="M106.007 21.4785C106.989 20.2434 108.242 19.6259 109.766 19.6259C111.393 19.6259 112.619 20.1078 113.444 21.0688C114.27 22.0298 114.694 23.4516 114.713 25.3314V34.6367H110.107V25.4428C110.107 24.6626 109.947 24.0872 109.631 23.7197C109.311 23.3522 108.772 23.1685 108.01 23.1685C107.064 23.1685 106.398 23.4697 106.007 24.0661V34.6367H101.416V13.7125H106.007V21.4785Z" fill="#31A039"/>
<path d="M126.045 33.0431C125.072 34.2873 123.762 34.9108 122.108 34.9108C120.454 34.9108 119.267 34.4409 118.436 33.501C117.604 32.5612 117.189 31.2116 117.189 29.4493V19.9H121.78V29.4764C121.78 30.7386 122.391 31.3713 123.617 31.3713C124.672 31.3713 125.419 30.9947 125.864 30.2416V19.903H130.482V34.6427H126.178L126.042 33.0492L126.045 33.0431Z" fill="#31A039"/>
<path d="M146.683 27.3888C146.683 29.8048 146.183 31.6604 145.186 32.9618C144.186 34.2601 142.779 34.9108 140.963 34.9108C139.466 34.9108 138.258 34.3174 137.339 33.1275L137.149 34.6397H133.034V13.7125H137.625V21.0809C138.478 20.1078 139.583 19.6228 140.936 19.6228C142.77 19.6228 144.186 20.2826 145.186 21.599C146.186 22.9154 146.683 24.768 146.683 27.1569V27.3888ZM142.077 27.0966C142.077 25.6838 141.888 24.6747 141.511 24.0722C141.135 23.4697 140.556 23.1685 139.773 23.1685C138.737 23.1685 138.02 23.5631 137.619 24.3523V30.1994C138.011 30.9796 138.737 31.3682 139.8 31.3682C140.863 31.3682 141.565 30.8411 141.858 29.7897C142.002 29.2716 142.074 28.3739 142.074 27.0966H142.077Z" fill="#31A039"/>
<path d="M25 50C38.8071 50 50 38.8071 50 25C50 11.1929 38.8071 0 25 0C11.1929 0 0 11.1929 0 25C0 38.8071 11.1929 50 25 50Z" fill="white"/>
<path d="M25.0001 47.7286C37.5528 47.7286 47.7288 37.5527 47.7288 25C47.7288 12.4473 37.5528 2.27136 25.0001 2.27136C12.4474 2.27136 2.27148 12.4473 2.27148 25C2.27148 37.5527 12.4474 47.7286 25.0001 47.7286Z" fill="#31A039"/>
<path d="M42.7008 23.8583H36.191V7.63646C36.191 5.9706 34.8384 4.61803 33.1726 4.61803C31.5067 4.61803 30.1541 5.9706 30.1541 7.63646V23.8613H18.5865V17.3876C18.5865 15.5742 20.1559 14.3692 20.8307 13.9384C21.6591 13.4082 24.5842 12.4262 25.0421 11.7544L25.0481 11.7454C26.5633 9.52223 24.6354 6.59116 21.9905 7.07615C20.8458 7.28702 19.6649 7.69972 18.5021 8.31124C14.7758 10.2844 12.5496 13.6763 12.5496 17.3876V23.8613H7.29895C5.63309 23.8613 4.28052 25.2139 4.28052 26.8797C4.28052 28.5456 5.63309 29.8982 7.29895 29.8982H12.5496V37.7274C12.5496 39.3933 13.9022 40.7459 15.568 40.7459C17.2339 40.7459 18.5865 39.3933 18.5865 37.7274V29.8982H30.1541V42.3665C30.1541 44.0324 31.5067 45.385 33.1726 45.385C34.8384 45.385 36.191 44.0324 36.191 42.3665V29.8982H42.7008C44.3667 29.8982 45.7192 28.5456 45.7192 26.8797C45.7192 25.2139 44.3667 23.8613 42.7008 23.8613V23.8583Z" fill="white"/>
</svg>
