<svg width="16" height="20" viewBox="0 0 16 20" fill="none" xmlns="http://www.w3.org/2000/svg">
<path d="M8.44764 19.5506C10.4567 17.0363 15.0389 10.9424 15.0389 7.51946C15.0389 3.36809 11.6708 0 7.51946 0C3.36809 0 0 3.36809 0 7.51946C0 10.9424 4.58217 17.0363 6.59128 19.5506C7.07299 20.1498 7.96593 20.1498 8.44764 19.5506ZM7.51946 5.01297C8.18422 5.01297 8.82175 5.27705 9.29181 5.74711C9.76187 6.21716 10.0259 6.8547 10.0259 7.51946C10.0259 8.18422 9.76187 8.82176 9.29181 9.29181C8.82175 9.76187 8.18422 10.0259 7.51946 10.0259C6.8547 10.0259 6.21716 9.76187 5.74711 9.29181C5.27705 8.82176 5.01297 8.18422 5.01297 7.51946C5.01297 6.8547 5.27705 6.21716 5.74711 5.74711C6.21716 5.27705 6.8547 5.01297 7.51946 5.01297Z" fill="#2AA82A"/>
</svg>
