<svg width="24" height="28" viewBox="0 0 24 28" fill="none" xmlns="http://www.w3.org/2000/svg">
<path d="M12 13.7143C13.8186 13.7143 15.5628 12.9918 16.8487 11.7059C18.1347 10.4199 18.8571 8.67577 18.8571 6.85714C18.8571 5.03852 18.1347 3.29437 16.8487 2.00841C15.5628 0.722447 13.8186 0 12 0C10.1814 0 8.43723 0.722447 7.15127 2.00841C5.8653 3.29437 5.14286 5.03852 5.14286 6.85714C5.14286 8.67577 5.8653 10.4199 7.15127 11.7059C8.43723 12.9918 10.1814 13.7143 12 13.7143ZM9.55179 16.2857C4.275 16.2857 0 20.5607 0 25.8375C0 26.7161 0.7125 27.4286 1.59107 27.4286H22.4089C23.2875 27.4286 24 26.7161 24 25.8375C24 20.5607 19.725 16.2857 14.4482 16.2857H9.55179Z" fill="#2AA82A"/>
</svg>
