<svg width="24" height="24" viewBox="0 0 24 24" fill="none" xmlns="http://www.w3.org/2000/svg">
<path d="M19.501 9.75048C19.501 11.9021 18.8025 13.8897 17.6259 15.5023L23.5605 21.4417C24.1465 22.0276 24.1465 22.9792 23.5605 23.5652C22.9746 24.1512 22.0229 24.1512 21.437 23.5652L15.5023 17.6259C13.8897 18.8072 11.9021 19.501 9.75048 19.501C4.36428 19.501 0 15.1367 0 9.75048C0 4.36428 4.36428 0 9.75048 0C15.1367 0 19.501 4.36428 19.501 9.75048ZM9.75048 16.5008C10.6369 16.5008 11.5147 16.3262 12.3337 15.987C13.1527 15.6477 13.8969 15.1505 14.5237 14.5237C15.1505 13.8969 15.6477 13.1527 15.987 12.3337C16.3262 11.5147 16.5008 10.6369 16.5008 9.75048C16.5008 8.86401 16.3262 7.98622 15.987 7.16724C15.6477 6.34825 15.1505 5.6041 14.5237 4.97727C13.8969 4.35045 13.1527 3.85322 12.3337 3.51398C11.5147 3.17475 10.6369 3.00015 9.75048 3.00015C8.86401 3.00015 7.98622 3.17475 7.16724 3.51398C6.34825 3.85322 5.6041 4.35045 4.97727 4.97727C4.35045 5.6041 3.85322 6.34825 3.51398 7.16724C3.17475 7.98622 3.00015 8.86401 3.00015 9.75048C3.00015 10.6369 3.17475 11.5147 3.51398 12.3337C3.85322 13.1527 4.35045 13.8969 4.97727 14.5237C5.6041 15.1505 6.34825 15.6477 7.16724 15.987C7.98622 16.3262 8.86401 16.5008 9.75048 16.5008Z" fill="#2AA82A"/>
</svg>
