<svg width="24" height="28" viewBox="0 0 24 28" fill="none" xmlns="http://www.w3.org/2000/svg">
<path d="M8.53393 0.290639C8.95179 -0.100433 9.6 -0.0950755 10.0179 0.295996C11.4964 1.6835 12.8839 3.17814 14.1804 4.796C14.7696 4.02457 15.4393 3.1835 16.1625 2.49778C16.5857 2.10135 17.2393 2.10135 17.6625 2.50314C19.5161 4.271 21.0857 6.60671 22.1893 8.82457C23.2768 11.0103 24 13.2442 24 14.8192C24 21.6549 18.6536 27.4299 12 27.4299C5.27143 27.4299 0 21.6496 0 14.8139C0 12.7567 0.953572 10.2442 2.43214 7.7585C3.92679 5.23528 6.0375 2.60492 8.53393 0.290639ZM12.0911 22.2871C13.4464 22.2871 14.6464 21.9121 15.7768 21.1621C18.0321 19.5871 18.6375 16.4371 17.2821 13.9621C17.0411 13.4799 16.425 13.4478 16.0768 13.8549L14.7268 15.4246C14.3732 15.8317 13.7357 15.821 13.4036 15.3978C12.5196 14.2728 10.9393 12.2639 10.0393 11.1228C9.70179 10.6942 9.05893 10.6889 8.71607 11.1174C6.90536 13.3942 5.99464 14.8299 5.99464 16.4424C6 20.1121 8.71071 22.2871 12.0911 22.2871Z" fill="#2AA82A"/>
</svg>
