<svg width="20" height="20" viewBox="0 0 20 20" fill="none" xmlns="http://www.w3.org/2000/svg">
<path d="M19.6137 2.34415C20.2022 1.73712 20.1084 0.83549 19.4001 0.331115C18.6919 -0.17326 17.6399 -0.0929169 17.0514 0.514118L10 7.7673L2.94859 0.514118C2.3601 -0.0929169 1.30812 -0.17326 0.599854 0.331115C-0.108412 0.83549 -0.202153 1.73712 0.386333 2.34415L7.82833 9.99905L0.386333 17.6539C-0.202153 18.261 -0.108412 19.1626 0.599854 19.667C1.30812 20.1714 2.3601 20.091 2.94859 19.484L10 12.2308L17.0514 19.484C17.6399 20.091 18.6919 20.1714 19.4001 19.667C20.1084 19.1626 20.2022 18.261 19.6137 17.6539L12.1717 9.99905L19.6137 2.34415Z" fill="black"/>
</svg>
