<svg width="88" height="100" viewBox="0 0 88 100" fill="none" xmlns="http://www.w3.org/2000/svg">
<path d="M5.86523 71.5156V90H1.40918V71.5156H5.86523ZM13.0508 79.209V82.6367H4.5957V79.209H13.0508ZM13.7744 71.5156V74.9561H4.5957V71.5156H13.7744ZM23.1689 86.6611V76.2637H27.46V90H23.4482L23.1689 86.6611ZM23.5752 83.8682L24.6924 83.8428C24.6924 84.7653 24.5824 85.6201 24.3623 86.4072C24.1423 87.1859 23.8164 87.863 23.3848 88.4385C22.9616 89.014 22.4368 89.4626 21.8105 89.7842C21.1927 90.0973 20.4775 90.2539 19.665 90.2539C18.988 90.2539 18.3659 90.1608 17.7988 89.9746C17.2402 89.7799 16.7578 89.4795 16.3516 89.0732C15.9453 88.6585 15.6279 88.1296 15.3994 87.4863C15.1794 86.8346 15.0693 86.056 15.0693 85.1504V76.2637H19.3477V85.1758C19.3477 85.4805 19.3857 85.7428 19.4619 85.9629C19.5381 86.1829 19.6481 86.3691 19.792 86.5215C19.9359 86.6654 20.1136 86.7754 20.3252 86.8516C20.5452 86.9193 20.7949 86.9531 21.0742 86.9531C21.7174 86.9531 22.221 86.8177 22.585 86.5469C22.9489 86.276 23.2028 85.9079 23.3467 85.4424C23.499 84.9769 23.5752 84.4521 23.5752 83.8682ZM34.0234 79.1963V90H29.7451V76.2637H33.7568L34.0234 79.1963ZM33.5156 82.6621L32.5127 82.6875C32.5127 81.638 32.6396 80.7028 32.8936 79.8818C33.1475 79.0524 33.5072 78.3499 33.9727 77.7744C34.4382 77.1989 34.9925 76.763 35.6357 76.4668C36.2874 76.1621 37.0111 76.0098 37.8066 76.0098C38.4414 76.0098 39.0212 76.1029 39.5459 76.2891C40.0791 76.4753 40.5361 76.7757 40.917 77.1904C41.3063 77.6051 41.6025 78.1553 41.8057 78.8408C42.0173 79.5179 42.123 80.3558 42.123 81.3545V90H37.8193V81.3418C37.8193 80.7917 37.7432 80.3727 37.5908 80.085C37.4385 79.7887 37.2184 79.5856 36.9307 79.4756C36.6429 79.3656 36.2917 79.3105 35.877 79.3105C35.4368 79.3105 35.0645 79.3952 34.7598 79.5645C34.4551 79.7337 34.2096 79.9707 34.0234 80.2754C33.8457 80.5716 33.7145 80.9229 33.6299 81.3291C33.5537 81.7354 33.5156 82.1797 33.5156 82.6621ZM48.6865 70.5V90H44.4082V70.5H48.6865ZM48.1787 82.6621L47.1758 82.6875C47.1758 81.7227 47.2943 80.834 47.5312 80.0215C47.7682 79.209 48.1068 78.5023 48.5469 77.9014C48.987 77.3005 49.516 76.835 50.1338 76.5049C50.7516 76.1748 51.4372 76.0098 52.1904 76.0098C52.8675 76.0098 53.4854 76.1071 54.0439 76.3018C54.611 76.4964 55.0977 76.8096 55.5039 77.2412C55.9186 77.6729 56.236 78.2357 56.4561 78.9297C56.6846 79.6237 56.7988 80.4701 56.7988 81.4688V90H52.4951V81.4434C52.4951 80.8848 52.4147 80.4531 52.2539 80.1484C52.1016 79.8353 51.8815 79.6195 51.5938 79.501C51.306 79.374 50.9548 79.3105 50.54 79.3105C50.0407 79.3105 49.6344 79.3952 49.3213 79.5645C49.0081 79.7337 48.7669 79.9707 48.5977 80.2754C48.4368 80.5716 48.3268 80.9229 48.2676 81.3291C48.2083 81.7354 48.1787 82.1797 48.1787 82.6621ZM67.1963 86.6611V76.2637H71.4873V90H67.4756L67.1963 86.6611ZM67.6025 83.8682L68.7197 83.8428C68.7197 84.7653 68.6097 85.6201 68.3896 86.4072C68.1696 87.1859 67.8438 87.863 67.4121 88.4385C66.9889 89.014 66.4642 89.4626 65.8379 89.7842C65.2201 90.0973 64.5049 90.2539 63.6924 90.2539C63.0153 90.2539 62.3932 90.1608 61.8262 89.9746C61.2676 89.7799 60.7852 89.4795 60.3789 89.0732C59.9727 88.6585 59.6553 88.1296 59.4268 87.4863C59.2067 86.8346 59.0967 86.056 59.0967 85.1504V76.2637H63.375V85.1758C63.375 85.4805 63.4131 85.7428 63.4893 85.9629C63.5654 86.1829 63.6755 86.3691 63.8193 86.5215C63.9632 86.6654 64.141 86.7754 64.3525 86.8516C64.5726 86.9193 64.8223 86.9531 65.1016 86.9531C65.7448 86.9531 66.2484 86.8177 66.6123 86.5469C66.9762 86.276 67.2301 85.9079 67.374 85.4424C67.5264 84.9769 67.6025 84.4521 67.6025 83.8682ZM73.8867 70.5H78.165V86.623L77.7207 90H73.8867V70.5ZM86.5947 82.9795V83.2461C86.5947 84.2871 86.4889 85.235 86.2773 86.0898C86.0658 86.9447 85.7399 87.6852 85.2998 88.3115C84.8597 88.9294 84.3053 89.4076 83.6367 89.7461C82.9681 90.0846 82.1768 90.2539 81.2627 90.2539C80.4333 90.2539 79.7223 90.0762 79.1299 89.7207C78.5374 89.3568 78.0423 88.8574 77.6445 88.2227C77.2467 87.5794 76.9251 86.8389 76.6797 86.001C76.4342 85.1546 76.2396 84.249 76.0957 83.2842V82.9668C76.2396 82.0104 76.4342 81.1133 76.6797 80.2754C76.9251 79.429 77.2467 78.6885 77.6445 78.0537C78.0423 77.4105 78.5332 76.9111 79.1172 76.5557C79.7096 76.1917 80.4163 76.0098 81.2373 76.0098C82.1598 76.0098 82.9554 76.1833 83.624 76.5303C84.3011 76.8773 84.8597 77.3639 85.2998 77.9902C85.7399 78.6165 86.0658 79.3529 86.2773 80.1992C86.4889 81.0456 86.5947 81.9723 86.5947 82.9795ZM82.3164 83.2461V82.9795C82.3164 82.4801 82.2868 82.0104 82.2275 81.5703C82.1683 81.1302 82.0625 80.7409 81.9102 80.4023C81.7578 80.0638 81.542 79.7972 81.2627 79.6025C80.9834 79.4079 80.6195 79.3105 80.1709 79.3105C79.7139 79.3105 79.3288 79.3867 79.0156 79.5391C78.7109 79.6914 78.4655 79.9115 78.2793 80.1992C78.1016 80.4785 77.9746 80.8255 77.8984 81.2402C77.8223 81.6465 77.7884 82.1077 77.7969 82.624V83.627C77.7799 84.3294 77.8434 84.9303 77.9873 85.4297C78.1312 85.929 78.3809 86.3099 78.7363 86.5723C79.0918 86.8346 79.5785 86.9658 80.1963 86.9658C80.6533 86.9658 81.0215 86.877 81.3008 86.6992C81.5885 86.5215 81.8044 86.2676 81.9482 85.9375C82.0921 85.6074 82.1895 85.2139 82.2402 84.7568C82.291 84.2998 82.3164 83.7962 82.3164 83.2461Z" fill="#2AA82A"/>
<g clip-path="url(#clip0_207_93)">
<path d="M44 60C60.5685 60 74 46.5685 74 30C74 13.4315 60.5685 0 44 0C27.4315 0 14 13.4315 14 30C14 46.5685 27.4315 60 44 60Z" fill="white"/>
<path d="M44.0001 57.2735C59.0628 57.2735 71.2735 45.0628 71.2735 30.0001C71.2735 14.9373 59.0628 2.72656 44.0001 2.72656C28.9373 2.72656 16.7266 14.9373 16.7266 30.0001C16.7266 45.0628 28.9373 57.2735 44.0001 57.2735Z" fill="#31A039"/>
<path d="M65.2413 28.6317H57.4311V9.16332C57.4311 7.16209 55.8093 5.54028 53.808 5.54028C51.8068 5.54028 50.185 7.16209 50.185 9.16332V28.6317H36.304V20.8618C36.304 18.6843 38.1877 17.2421 38.9969 16.7217C39.9891 16.0854 43.5014 14.9051 44.0504 14.1009L44.0571 14.0908C45.8736 11.4231 43.5618 7.90583 40.387 8.48841C39.0137 8.74024 37.5951 9.23551 36.2033 9.97254C31.7307 12.3381 29.0596 16.4094 29.0596 20.8635V28.6334H22.7571C20.7558 28.6334 19.134 30.2552 19.134 32.2564C19.134 34.2576 20.7558 35.8794 22.7571 35.8794H29.0596V45.2745C29.0596 47.2757 30.6814 48.8975 32.6826 48.8975C34.6839 48.8975 36.3057 47.2757 36.3057 45.2745V35.8794H50.1867V50.84C50.1867 52.8412 51.8085 54.463 53.8097 54.463C55.811 54.463 57.4328 52.8412 57.4328 50.84V35.8794H65.2429C67.2442 35.8794 68.866 34.2576 68.866 32.2564C68.866 30.2552 67.2442 28.6334 65.2429 28.6334L65.2413 28.6317Z" fill="white"/>
</g>
<defs>
<clipPath id="clip0_207_93">
<rect width="60" height="60" fill="white" transform="translate(14)"/>
</clipPath>
</defs>
</svg>
